<?xml version="1.0" encoding="UTF-8" standalone="no"?>
<!-- Created with Inkscape (http://www.inkscape.org/) -->

<svg
   xmlns:dc="http://purl.org/dc/elements/1.1/"
   xmlns:cc="http://creativecommons.org/ns#"
   xmlns:rdf="http://www.w3.org/1999/02/22-rdf-syntax-ns#"
   xmlns:svg="http://www.w3.org/2000/svg"
   xmlns="http://www.w3.org/2000/svg"
   xmlns:sodipodi="http://sodipodi.sourceforge.net/DTD/sodipodi-0.dtd"
   xmlns:inkscape="http://www.inkscape.org/namespaces/inkscape"
   width="700"
   height="275"
   id="svg2"
   version="1.1"
   inkscape:version="0.47pre4 r22446"
   sodipodi:docname="tape2cd.png">
  <defs
     id="defs4">
    <inkscape:perspective
       sodipodi:type="inkscape:persp3d"
       inkscape:vp_x="0 : 526.18109 : 1"
       inkscape:vp_y="0 : 1000 : 0"
       inkscape:vp_z="744.09448 : 526.18109 : 1"
       inkscape:persp3d-origin="372.04724 : 350.78739 : 1"
       id="perspective10" />
    <inkscape:perspective
       id="perspective3626"
       inkscape:persp3d-origin="0.5 : 0.33333333 : 1"
       inkscape:vp_z="1 : 0.5 : 1"
       inkscape:vp_y="0 : 1000 : 0"
       inkscape:vp_x="0 : 0.5 : 1"
       sodipodi:type="inkscape:persp3d" />
    <inkscape:perspective
       id="perspective3676"
       inkscape:persp3d-origin="0.5 : 0.33333333 : 1"
       inkscape:vp_z="1 : 0.5 : 1"
       inkscape:vp_y="0 : 1000 : 0"
       inkscape:vp_x="0 : 0.5 : 1"
       sodipodi:type="inkscape:persp3d" />
    <inkscape:perspective
       id="perspective3708"
       inkscape:persp3d-origin="0.5 : 0.33333333 : 1"
       inkscape:vp_z="1 : 0.5 : 1"
       inkscape:vp_y="0 : 1000 : 0"
       inkscape:vp_x="0 : 0.5 : 1"
       sodipodi:type="inkscape:persp3d" />
    <inkscape:perspective
       id="perspective3785"
       inkscape:persp3d-origin="0.5 : 0.33333333 : 1"
       inkscape:vp_z="1 : 0.5 : 1"
       inkscape:vp_y="0 : 1000 : 0"
       inkscape:vp_x="0 : 0.5 : 1"
       sodipodi:type="inkscape:persp3d" />
  </defs>
  <sodipodi:namedview
     id="base"
     pagecolor="#ffffff"
     bordercolor="#666666"
     borderopacity="1.0"
     inkscape:pageopacity="0.0"
     inkscape:pageshadow="2"
     inkscape:zoom="1.4"
     inkscape:cx="372.11114"
     inkscape:cy="141.45505"
     inkscape:document-units="px"
     inkscape:current-layer="layer1"
     showgrid="false"
     inkscape:window-width="1024"
     inkscape:window-height="721"
     inkscape:window-x="0"
     inkscape:window-y="0"
     inkscape:window-maximized="1" />
  <metadata
     id="metadata7">
    <rdf:RDF>
      <cc:Work
         rdf:about="">
        <dc:format>image/svg+xml</dc:format>
        <dc:type
           rdf:resource="http://purl.org/dc/dcmitype/StillImage" />
        <dc:title></dc:title>
      </cc:Work>
    </rdf:RDF>
  </metadata>
  <g
     inkscape:label="Layer 1"
     inkscape:groupmode="layer"
     id="layer1"
     transform="translate(-35.14286,-100.86217)">
    <path
       sodipodi:type="arc"
       style="fill:none;stroke:#000000;stroke-width:5;stroke-miterlimit:4;stroke-opacity:1;stroke-dasharray:none"
       id="path3594"
       sodipodi:cx="432.85715"
       sodipodi:cy="252.36218"
       sodipodi:rx="118.57143"
       sodipodi:ry="118.57143"
       d="m 551.42857,252.36218 a 118.57143,118.57143 0 1 1 -237.14285,0 118.57143,118.57143 0 1 1 237.14285,0 z"
       transform="translate(170.74402,-9.9789734)" />
    <path
       transform="translate(171.60116,-9.6932634)"
       sodipodi:type="arc"
       style="fill:none;stroke:#000000;stroke-width:5;stroke-miterlimit:4;stroke-opacity:1;stroke-dasharray:none"
       id="path3594-8"
       sodipodi:cx="432.85715"
       sodipodi:cy="252.36218"
       sodipodi:rx="118.57143"
       sodipodi:ry="118.57143"
       d="m 551.42857,252.36218 a 118.57143,118.57143 0 1 1 -237.14285,0 118.57143,118.57143 0 1 1 237.14285,0 z" />
    <path
       sodipodi:type="arc"
       style="fill:none;stroke:#000000;stroke-width:5;stroke-miterlimit:4;stroke-opacity:1;stroke-dasharray:none"
       id="path3642"
       sodipodi:cx="433.57144"
       sodipodi:cy="245.93361"
       sodipodi:rx="20.714285"
       sodipodi:ry="20.714285"
       d="m 454.28573,245.93361 a 20.714285,20.714285 0 1 1 -41.42857,0 20.714285,20.714285 0 1 1 41.42857,0 z"
       transform="translate(172.17259,-4.2646877)" />
    <path
       style="fill:none;stroke:#000000;stroke-width:2;stroke-linecap:butt;stroke-linejoin:miter;stroke-miterlimit:4;stroke-opacity:1;stroke-dasharray:none"
       d="m 639.95988,140.82207 0.50507,-0.50508 0,0.50508 0,0 0,0 -0.50507,0 0,0 c 0,0 0,0 -22.72843,73.74113 19.19289,0 17.67766,16.66752 17.67766,16.66752 l 0,0 0,0 c 67.68023,-34.34519 68.1853,-34.34519 68.1853,-34.34519 l 1.51523,1.01015 c 0,0 -37.88072,-57.07361 -64.64976,-57.07361 z"
       id="path3660" />
    <rect
       style="fill:none;stroke:#000000;stroke-width:4;stroke-miterlimit:4;stroke-opacity:1;stroke-dasharray:none"
       id="rect3662"
       width="235.71428"
       height="152.85715"
       x="54.315453"
       y="161.66893" />
    <path
       style="fill:none;stroke:#000000;stroke-width:1px;stroke-linecap:butt;stroke-linejoin:miter;stroke-opacity:1"
       d="m 92.886883,314.52606 15.714277,-29.28571 121.42857,0 16.42857,29.28571"
       id="path3664" />
    <path
       sodipodi:type="arc"
       style="fill:none;stroke:#000000;stroke-width:4;stroke-miterlimit:4;stroke-opacity:1;stroke-dasharray:none"
       id="path3666"
       sodipodi:cx="165"
       sodipodi:cy="237.36218"
       sodipodi:rx="12.142858"
       sodipodi:ry="12.142858"
       d="m 177.14286,237.36218 a 12.142858,12.142858 0 1 1 -24.28572,0 12.142858,12.142858 0 1 1 24.28572,0 z"
       transform="translate(-36.113121,-3.9789742)" />
    <path
       transform="translate(49.601163,-3.9789742)"
       sodipodi:type="arc"
       style="fill:none;stroke:#000000;stroke-width:4;stroke-miterlimit:4;stroke-opacity:1;stroke-dasharray:none"
       id="path3666-8"
       sodipodi:cx="165"
       sodipodi:cy="237.36218"
       sodipodi:rx="12.142858"
       sodipodi:ry="12.142858"
       d="m 177.14286,237.36218 a 12.142858,12.142858 0 1 1 -24.28572,0 12.142858,12.142858 0 1 1 24.28572,0 z" />
    <rect
       style="fill:none;stroke:#000000;stroke-width:2;stroke-miterlimit:4;stroke-opacity:1;stroke-dasharray:none"
       id="rect3692"
       width="223.21428"
       height="34.285713"
       x="60.172592"
       y="168.24036"
       ry="0.35714287" />
    <rect
       style="fill:#000000;fill-opacity:1;stroke:#000000;stroke-width:2;stroke-miterlimit:4;stroke-opacity:1;stroke-dasharray:none"
       id="rect3696"
       width="121.21831"
       height="17.172594"
       x="318.19806"
       y="273.00665"
       ry="0.35714287" />
    <path
       style="fill:none;stroke:#000000;stroke-width:1px;stroke-linecap:butt;stroke-linejoin:miter;stroke-opacity:1"
       d="m 410.10163,246.74267 c 42.4264,35.35534 42.4264,35.35534 42.4264,35.35534"
       id="path3698" />
    <path
       style="fill:#000000;fill-opacity:1;stroke:#000000;stroke-width:1px;stroke-linecap:butt;stroke-linejoin:miter;stroke-opacity:1"
       d="m 452.52803,281.3404 c 0,0 0,0 -42.4264,35.35534 0.25253,-69.70053 0.25253,-69.70053 0.25253,-69.70053"
       id="path3698-0" />
    <path
       style="fill:none;stroke:#000000;stroke-width:1px;stroke-linecap:butt;stroke-linejoin:miter;stroke-opacity:1"
       d="m 298.57143,87.142857 c 0,49.285713 45.71428,47.142853 45.71428,47.142853"
       id="path3775"
       transform="translate(35.14286,100.86217)" />
    <path
       style="fill:none;stroke:#000000;stroke-width:1px;stroke-linecap:butt;stroke-linejoin:miter;stroke-opacity:1"
       d="m 423.75145,188.08355 c 0,49.28571 -45.71428,47.14285 -45.71428,47.14285"
       id="path3775-9" />
    <path
       style="fill:none;stroke:#000000;stroke-width:1px;stroke-linecap:butt;stroke-linejoin:miter;stroke-opacity:1"
       d="m 298.24754,87.616703 c 0,-27.274119 0,-27.779195 0,-27.779195 l 8.83883,22.223356 0.25254,-37.375645 14.64721,27.779195 10.35407,-45.204326 13.38452,26.769042 13.8896,-38.638334 9.84898,53.033008 12.87945,-25.001275 6.31345,44.951788"
       id="path3799"
       transform="translate(35.14286,100.86217)" />
  </g>
</svg>
